<?xml version="1.0" standalone="no"?>
<!DOCTYPE svg PUBLIC "-//W3C//DTD SVG 20010904//EN"
 "http://www.w3.org/TR/2001/REC-SVG-20010904/DTD/svg10.dtd">
<svg version="1.0" xmlns="http://www.w3.org/2000/svg"
 width="700.000000pt" height="700.000000pt" viewBox="0 0 700.000000 700.000000"
 preserveAspectRatio="xMidYMid meet">
<metadata>
Created by potrace 1.14, written by Peter Selinger 2001-2017
</metadata>
<g transform="translate(0.000000,700.000000) scale(0.100000,-0.100000)"
fill="#000000" stroke="none">
<path d="M1051 6980 c-250 -67 -437 -242 -518 -485 -25 -74 -27 -92 -27 -245
0 -153 2 -171 27 -245 38 -116 91 -199 182 -290 146 -146 284 -205 498 -213
140 -5 217 6 308 43 l57 23 268 -270 269 -269 -55 -47 c-298 -254 -531 -571
-660 -898 l-32 -82 -141 -4 c-118 -4 -155 -9 -222 -31 -117 -39 -199 -91 -295
-187 -67 -67 -95 -103 -128 -170 -66 -133 -85 -225 -80 -389 6 -156 30 -248
95 -361 49 -83 180 -214 263 -263 114 -66 205 -89 367 -95 l141 -4 38 -92
c140 -342 367 -651 656 -892 318 -266 722 -442 1148 -499 212 -29 544 -16 760
30 723 152 1341 670 1624 1361 l38 92 141 4 c118 4 155 9 222 31 115 38 199
90 290 182 91 91 144 174 182 290 25 74 27 92 27 245 0 153 -2 171 -27 245
-38 116 -91 199 -182 290 -91 92 -175 144 -290 182 -67 22 -104 27 -222 31
l-142 4 -27 72 c-43 115 -150 323 -221 430 -118 177 -274 347 -430 470 -35 27
-63 52 -63 55 0 3 120 126 266 272 l266 267 57 -23 c91 -37 168 -48 308 -43
214 8 352 67 498 213 91 91 144 174 182 290 25 74 27 92 27 245 0 153 -2 171
-27 245 -38 116 -91 199 -182 290 -92 92 -175 144 -290 182 -115 38 -315 44
-436 14 -141 -35 -240 -91 -344 -196 -104 -103 -161 -203 -195 -339 -37 -146
-24 -354 28 -477 l20 -46 -308 -308 -308 -308 -88 36 c-169 68 -331 113 -519
144 -169 28 -525 25 -700 -6 -156 -27 -325 -75 -464 -130 l-103 -41 -73 68
c-40 37 -185 175 -322 307 l-249 240 22 55 c36 91 47 168 42 307 -8 214 -67
352 -213 498 -91 92 -175 144 -290 182 -68 22 -101 27 -225 30 -121 2 -157 0
-219 -17z m4805 -3512 c92 -48 134 -117 134 -218 0 -101 -42 -170 -134 -218
l-51 -27 -2305 0 -2305 0 -51 27 c-56 29 -99 75 -121 125 -17 42 -17 144 0
186 32 74 108 133 192 148 22 4 1064 6 2315 5 l2275 -1 51 -27z"/>
</g>
</svg>
